<mxfile host="65bd71144e" pages="1">
    <diagram id="IOaM9t_JLHqZJk_0bNqH" name="Page-1">
        <mxGraphModel dx="552" dy="508" grid="1" gridSize="10" guides="1" tooltips="1" connect="1" arrows="1" fold="1" page="1" pageScale="1" pageWidth="850" pageHeight="1100" background="#FFFFFF" math="0" shadow="0">
            <root>
                <mxCell id="0"/>
                <mxCell id="1" parent="0"/>
                <mxCell id="66" style="edgeStyle=orthogonalEdgeStyle;rounded=0;orthogonalLoop=1;jettySize=auto;html=1;entryX=1;entryY=0.404;entryDx=0;entryDy=0;entryPerimeter=0;" parent="1" source="4" target="5" edge="1">
                    <mxGeometry relative="1" as="geometry"/>
                </mxCell>
                <mxCell id="4" value="" style="rounded=0;whiteSpace=wrap;html=1;fontStyle=1" parent="1" vertex="1">
                    <mxGeometry x="440" y="160" width="120" height="60" as="geometry"/>
                </mxCell>
                <mxCell id="5" value="" style="whiteSpace=wrap;html=1;aspect=fixed;" parent="1" vertex="1">
                    <mxGeometry x="244" y="160" width="156" height="156" as="geometry"/>
                </mxCell>
                <mxCell id="64" style="edgeStyle=orthogonalEdgeStyle;rounded=0;orthogonalLoop=1;jettySize=auto;html=1;entryX=0.006;entryY=0.429;entryDx=0;entryDy=0;entryPerimeter=0;" parent="1" source="6" target="5" edge="1">
                    <mxGeometry relative="1" as="geometry"/>
                </mxCell>
                <mxCell id="6" value="" style="rounded=0;whiteSpace=wrap;html=1;" parent="1" vertex="1">
                    <mxGeometry x="30" y="190" width="150" height="100" as="geometry"/>
                </mxCell>
                <mxCell id="9" value="" style="endArrow=classic;startArrow=classic;html=1;strokeColor=none;" parent="1" edge="1">
                    <mxGeometry width="50" height="50" relative="1" as="geometry">
                        <mxPoint x="150" y="180" as="sourcePoint"/>
                        <mxPoint x="150" y="230" as="targetPoint"/>
                        <Array as="points">
                            <mxPoint x="90" y="270"/>
                        </Array>
                    </mxGeometry>
                </mxCell>
                <mxCell id="21" value="Stylist" style="text;html=1;strokeColor=none;fillColor=#3399FF;align=center;verticalAlign=middle;whiteSpace=wrap;rounded=0;labelBackgroundColor=#3399FF;labelBorderColor=none;" parent="1" vertex="1">
                    <mxGeometry x="440" y="160" width="120" height="20" as="geometry"/>
                </mxCell>
                <mxCell id="22" value="Client" style="text;html=1;strokeColor=none;fillColor=#3399FF;align=center;verticalAlign=middle;whiteSpace=wrap;rounded=0;labelBackgroundColor=#3399FF;" parent="1" vertex="1">
                    <mxGeometry x="30" y="190" width="150" height="20" as="geometry"/>
                </mxCell>
                <mxCell id="23" value="Appointment" style="text;html=1;strokeColor=none;fillColor=#66B2FF;align=center;verticalAlign=middle;whiteSpace=wrap;rounded=0;labelBackgroundColor=#3399FF;" parent="1" vertex="1">
                    <mxGeometry x="244" y="160" width="156" height="20" as="geometry"/>
                </mxCell>
                <mxCell id="24" value="id" style="text;html=1;strokeColor=none;fillColor=none;align=center;verticalAlign=middle;whiteSpace=wrap;rounded=0;labelBackgroundColor=#FFFFFF;fontStyle=1" parent="1" vertex="1">
                    <mxGeometry x="450" y="180" width="30" height="20" as="geometry"/>
                </mxCell>
                <mxCell id="25" value="integer" style="text;html=1;strokeColor=none;fillColor=none;align=center;verticalAlign=middle;whiteSpace=wrap;rounded=0;labelBackgroundColor=#FFFFFF;" parent="1" vertex="1">
                    <mxGeometry x="510" y="180" width="40" height="20" as="geometry"/>
                </mxCell>
                <mxCell id="26" value="&lt;span style=&quot;font-weight: normal&quot;&gt;name&lt;/span&gt;" style="text;html=1;strokeColor=none;fillColor=none;align=center;verticalAlign=middle;whiteSpace=wrap;rounded=0;labelBackgroundColor=#FFFFFF;fontStyle=1" parent="1" vertex="1">
                    <mxGeometry x="440" y="200" width="40" height="20" as="geometry"/>
                </mxCell>
                <mxCell id="27" value="string" style="text;html=1;strokeColor=none;fillColor=none;align=center;verticalAlign=middle;whiteSpace=wrap;rounded=0;labelBackgroundColor=#FFFFFF;" parent="1" vertex="1">
                    <mxGeometry x="510" y="200" width="40" height="20" as="geometry"/>
                </mxCell>
                <mxCell id="28" value="integer" style="text;html=1;strokeColor=none;fillColor=none;align=center;verticalAlign=middle;whiteSpace=wrap;rounded=0;labelBackgroundColor=#FFFFFF;" parent="1" vertex="1">
                    <mxGeometry x="350" y="190" width="40" height="20" as="geometry"/>
                </mxCell>
                <mxCell id="30" value="&lt;b&gt;id&lt;/b&gt;" style="text;html=1;strokeColor=none;fillColor=none;align=center;verticalAlign=middle;whiteSpace=wrap;rounded=0;labelBackgroundColor=#FFFFFF;" parent="1" vertex="1">
                    <mxGeometry x="244" y="190" width="40" height="20" as="geometry"/>
                </mxCell>
                <mxCell id="31" value="&lt;b&gt;id&lt;/b&gt;" style="text;html=1;strokeColor=none;fillColor=none;align=center;verticalAlign=middle;whiteSpace=wrap;rounded=0;labelBackgroundColor=#FFFFFF;" parent="1" vertex="1">
                    <mxGeometry x="25" y="215" width="40" height="20" as="geometry"/>
                </mxCell>
                <mxCell id="32" value="integer" style="text;html=1;strokeColor=none;fillColor=none;align=center;verticalAlign=middle;whiteSpace=wrap;rounded=0;labelBackgroundColor=#FFFFFF;" parent="1" vertex="1">
                    <mxGeometry x="120" y="215" width="40" height="20" as="geometry"/>
                </mxCell>
                <mxCell id="33" value="client_id" style="text;html=1;strokeColor=none;fillColor=none;align=center;verticalAlign=middle;whiteSpace=wrap;rounded=0;labelBackgroundColor=#FFFFFF;" parent="1" vertex="1">
                    <mxGeometry x="250" y="210" width="40" height="20" as="geometry"/>
                </mxCell>
                <mxCell id="34" value="integer" style="text;html=1;strokeColor=none;fillColor=none;align=center;verticalAlign=middle;whiteSpace=wrap;rounded=0;labelBackgroundColor=#FFFFFF;" parent="1" vertex="1">
                    <mxGeometry x="350" y="210" width="40" height="20" as="geometry"/>
                </mxCell>
                <mxCell id="35" value="name" style="text;html=1;strokeColor=none;fillColor=none;align=center;verticalAlign=middle;whiteSpace=wrap;rounded=0;labelBackgroundColor=#FFFFFF;" parent="1" vertex="1">
                    <mxGeometry x="30" y="232.5" width="40" height="20" as="geometry"/>
                </mxCell>
                <mxCell id="36" value="&lt;span style=&quot;background-color: rgb(251, 251, 251);&quot;&gt;string&lt;/span&gt;" style="text;html=1;strokeColor=none;fillColor=none;align=center;verticalAlign=middle;whiteSpace=wrap;rounded=0;labelBackgroundColor=#FFFFFF;" parent="1" vertex="1">
                    <mxGeometry x="120" y="232.5" width="40" height="20" as="geometry"/>
                </mxCell>
                <mxCell id="47" value="date" style="text;html=1;strokeColor=none;fillColor=none;align=center;verticalAlign=middle;whiteSpace=wrap;rounded=0;" parent="1" vertex="1">
                    <mxGeometry x="244" y="250" width="40" height="27" as="geometry"/>
                </mxCell>
                <mxCell id="48" value="integer" style="text;html=1;strokeColor=none;fillColor=none;align=center;verticalAlign=middle;whiteSpace=wrap;rounded=0;" parent="1" vertex="1">
                    <mxGeometry x="350" y="257" width="40" height="20" as="geometry"/>
                </mxCell>
                <mxCell id="62" value="stylist_id" style="text;html=1;strokeColor=none;fillColor=none;align=center;verticalAlign=middle;whiteSpace=wrap;rounded=0;" parent="1" vertex="1">
                    <mxGeometry x="250" y="232.5" width="40" height="20" as="geometry"/>
                </mxCell>
                <mxCell id="63" value="integer" style="text;html=1;strokeColor=none;fillColor=none;align=center;verticalAlign=middle;whiteSpace=wrap;rounded=0;" parent="1" vertex="1">
                    <mxGeometry x="350" y="232.5" width="40" height="20" as="geometry"/>
                </mxCell>
                <mxCell id="69" value="time" style="text;html=1;strokeColor=none;fillColor=none;align=center;verticalAlign=middle;whiteSpace=wrap;rounded=0;" vertex="1" parent="1">
                    <mxGeometry x="244" y="277" width="40" height="27" as="geometry"/>
                </mxCell>
                <mxCell id="70" value="integer" style="text;html=1;strokeColor=none;fillColor=none;align=center;verticalAlign=middle;whiteSpace=wrap;rounded=0;" vertex="1" parent="1">
                    <mxGeometry x="350" y="280.5" width="40" height="20" as="geometry"/>
                </mxCell>
            </root>
        </mxGraphModel>
    </diagram>
</mxfile>